<svg width="24" height="24" viewBox="0 0 24 24" fill="none" xmlns="http://www.w3.org/2000/svg"><path fill-rule="evenodd" clip-rule="evenodd" d="M8.2101 3.10532C7.70201 3.26298 7.23062 3.46842 6.15977 3.99879L5.23838 4.45514L4.94141 4.98552C4.083 6.51875 2.52439 10.3206 2.61141 10.6688C2.64664 10.8096 2.76839 10.8795 2.85942 10.8112C2.89211 10.7867 3.57623 10.2716 4.37963 9.66666C5.18307 9.06172 6.13207 8.34847 6.4885 8.08172C7.72899 7.15332 7.67998 7.2086 8.24338 6.10101C8.95951 4.69306 9.38273 3.72149 9.38273 3.48544C9.38273 3.02276 8.93933 2.87899 8.2101 3.10532ZM19.0324 4.15184C17.2612 4.23376 14.8443 4.56478 13.8 4.86852C13.1073 5.06999 12.4817 5.56691 10.823 7.23303C8.50536 9.56104 5.39849 13.1982 2.32255 17.1844C1.12716 18.7336 0.755683 19.5014 1.15315 19.6015C1.33481 19.6473 1.57877 19.5441 2.58371 18.9965C5.88225 17.1988 9.32375 15.7466 14.8794 13.8081C17.3808 12.9353 17.7417 12.7947 18.0357 12.578C19.2462 11.6859 22.5293 6.99659 22.9425 5.5697C23.0875 5.06876 22.9573 4.70939 22.5632 4.52343C22.2455 4.37347 21.4309 4.22199 20.657 4.16896C19.9964 4.12364 19.7081 4.12064 19.0324 4.15184ZM20.2158 6.43085C19.3259 8.00117 18.2609 9.42261 17.1389 10.5375L16.629 11.0441L14.777 10.6933C13.7584 10.5003 12.892 10.331 12.8517 10.3171C12.7631 10.2864 13.3678 9.69967 14.0977 9.10837C15.1549 8.25174 16.7525 7.3307 18.153 6.77035C18.7394 6.53573 20.441 5.93707 20.463 5.95762C20.4706 5.96469 20.3593 6.17763 20.2158 6.43085ZM15.9543 16.5356C14.149 17.0437 10.478 18.5073 8.40554 19.5453C7.61837 19.9396 6.57141 20.5564 6.35921 20.7511C6.18181 20.9137 6.16412 21.0738 6.30386 21.2521C6.39517 21.3686 6.43592 21.3778 7.0001 21.4081C8.2061 21.4728 9.21094 21.5401 11.4348 21.7051C14.8396 21.9578 15.1608 21.9781 15.9299 21.9895L16.6383 22L17.2735 21.7633C19.5315 20.9216 21.0358 20.2251 21.2512 19.9214C21.5001 19.5703 21.4884 19.1028 21.2225 18.7856C21.0079 18.5296 19.8114 17.7687 18.9836 17.3619C18.1902 16.972 17.4947 16.7062 16.8069 16.5298C16.3559 16.4143 16.3862 16.414 15.9543 16.5356Z" fill="white"/></svg>